{"title":"The.Magnificent.Seven.2016.HDCAM.XviD-VAiN","uid":15904445,"size":1861932363,"categoryP":"video","categoryS":"movies","magnet":"?xt=urn:btih:cbc52184dadcd7ca2ce51db52f62a0e468389486&amp;dn=The.Magnificent.Seven.2016.HDCAM.XviD-VAiN&amp;tr=udp%3A%2F%2Ftracker.leechers-paradise.org%3A6969&amp;tr=udp%3A%2F%2Fzer0day.ch%3A1337&amp;tr=udp%3A%2F%2Fopen.demonii.com%3A1337&amp;tr=udp%3A%2F%2Ftracker.coppersurfer.tk%3A6969&amp;tr=udp%3A%2F%2Fexodus.desync.com%3A6969","seeders":13,"leechers":11,"uploader":"makintos13","files":3,"time":1475033222,"description":"screens:\r\n \nhttps://imgmak.com/arW\r\n \nhttps://imgmak.com/ard\r\n \nhttps://imgmak.com/ars\r\n \nhttps://imgmak.com/ar4\r\n\r\nP R E S E N T S . . . . \r\n\r\nThe.Magnificent.Seven.2016.HDCAM.XviD-VAiN\r\n\r\niMDB........: http://www.imdb.com/title/tt2404435/\r\n\r\n\r\n\r\nT E C H N i C A L . i N F O . . .\r\n\r\nBasic Information\r\nFormat                      : AVI\r\nFormat/Info                 : Audio Video Interleave\r\nFile size                   : 1.72 GiB\r\nDuration                    : 2 h 8 min\r\nOverall bit rate            : 1 918 kb/s\r\nWriting library             : VirtualDub build 35491/release\r\n\r\nVideo\r\nID                          : 0\r\nFormat                      : MPEG-4 Visual\r\nFormat profile              : Advanced   \r\nFormat settings, BVOP       : 2\r\nFormat settings, QPel       : No\r\nFormat settings, GMC        : No warppoints\r\nFormat settings, Matrix     : Default (H.263)\r\nMuxing mode                 : Packed bitstream\r\nCodec ID                    : XVID\r\nCodec ID/Hint               : XviD\r\nDuration                    : 2 h 8 min\r\nBit rate                    : 1 714 kb/s\r\nWidth                       : 720 pixels\r\nHeight                      : 336 pixels\r\nDisplay aspect ratio        : 2.143\r\nFrame rate                  : 29.970 (29970/1000) FPS\r\nColor space                 : YUV\r\nChroma subsampling          : 4:2:0\r\nBit depth                   : 8 bits\r\nScan type                   : Progressive\r\nCompression mode            : Lossy\r\nBits/(Pixel*Frame)          : 0.236\r\nStream size                 : 1.53 GiB (89%)\r\nWriting library             : XviD 64\r\n\r\nAudio\r\nID                          : 1\r\nFormat                      : AC-3\r\nFormat/Info                 : Audio Coding 3\r\nMode extension              : CM (complete main)\r\nFormat settings, Endianness : Big\r\nCodec ID                    : 2000\r\nDuration                    : 2 h 8 min\r\nBit rate mode               : Constant\r\nBit rate                    : 192 kb/s\r\nChannel(s)                  : 2 channels\r\nChannel positions           : Front: L R\r\nSampling rate               : 48.0 kHz\r\nFrame rate                  : 31.250 FPS (1536 spf)\r\nCompression mode            : Lossy\r\nStream size                 : 176 MiB (10%)\r\nAlignment                   : Split accross interleaves\r\nInterleave, duration        : 33  ms (1.00 video frame)\r\nInterleave, preload duratio : 500  ms\r\n\r\n\r\n\r\n\r\n[img]https://i.imgur.com/lBY01Nf.png[/img]\r\n\r\nE N C O D E R S . N O T E S . . .       \r\n\r\nSOURCE......: ViDEO...UnKnOwN\r\n............: AUDiO...UnKnOwN\r\nSAMPLE......: Yippers \r\nADDED NOTE..: the poo is strong with this one LOL!!! anyways did the usual filters to fix er up. vid was good with it to be honest just had to much greenish hue thing going on. ran audio through sum more filters still a cam... \r\n\r\nv7 a6 based on cam quality","torrent":{"xt":"urn:btih:cbc52184dadcd7ca2ce51db52f62a0e468389486","amp;dn":"The.Magnificent.Seven.2016.HDCAM.XviD-VAiN","amp;tr":["udp%3A%2F%2Ftracker.leechers-paradise.org%3A6969","udp%3A%2F%2Fzer0day.ch%3A1337","udp%3A%2F%2Fopen.demonii.com%3A1337","udp%3A%2F%2Ftracker.coppersurfer.tk%3A6969","udp%3A%2F%2Fexodus.desync.com%3A6969"],"infoHash":"cbc52184dadcd7ca2ce51db52f62a0e468389486","infoHashBuffer":{"type":"Buffer","data":[203,197,33,132,218,220,215,202,44,229,29,181,47,98,160,228,104,56,148,134]},"announce":[],"urlList":[]}}